# xmcd
#
# Track frame offsets:
#	225
#	23548
#	46644
#	77494
#	94526
#	117430
#	139171
#	156487
#	173702
#	194846
#	209362
#	222510
#	239156
#	262657
#
# Disc length: 3871 seconds
#
# Revision: 1
# Processed by: cddbd v1.5.2PL0 Copyright (c) Steve Scherf et al.
# Submitted via: audiograbber 1.83.01
#
DISCID=c20f1c0e
DTITLE=Keltika - Volume 22
DYEAR=1900
DGENRE=celtic
TTITLE0=Déanta - Culloden's Harvest
TTITLE1=David Arkenstone - The Festival
TTITLE2=Kìla - Jasmine
TTITLE3=Battlefield band - Bodachan A Gharaidh - General MacDonald - Craig An F
TTITLE3=hithich
TTITLE4=Wolfstone - Hector The Hero
TTITLE5=Aoife Clancy whit Cherish The Ladies - Green Grow The Rushes Oh
TTITLE6=J.P.Cormier - Another Morning
TTITLE7=Polverfolk - Down By The Sally Garden
TTITLE8=Ossian - Duncan Johnstone - The Duck - The Curlew
TTITLE9=Eilidh Mackenzie - Achadh Bhuana
TTITLE10=Emer Mayock - The Selma Jigs
TTITLE11=Deby Benton Grosjean - My Love Has Gone To Sea
TTITLE12=Aine uì Cheallaigh - A Chumaraigh Aoibhinn O
TTITLE13=Orealis - L'hiver Sur Richelieu - Miss B'S Dreams 
EXTD=
EXTT0=
EXTT1=
EXTT2=
EXTT3=
EXTT4=
EXTT5=
EXTT6=
EXTT7=
EXTT8=
EXTT9=
EXTT10=
EXTT11=
EXTT12=
EXTT13=
PLAYORDER=
